<?xml version="1.0" ?><svg enable-background="new 0 0 64 64" height="64px" version="1.1" viewBox="0 0 64 64" width="64px" xml:space="preserve" xmlns="http://www.w3.org/2000/svg" xmlns:xlink="http://www.w3.org/1999/xlink"><g id="Layer_1"><g><circle cx="32" cy="32" fill="#4F5D73" r="32"/></g><g opacity="0.2"><path d="M44.554,38c-0.907,0-1.161-0.622-0.563-1.382l4.756-6.049c0.598-0.76,1.575-0.76,2.173,0l4.756,6.049    C56.274,37.378,56.02,38,55.113,38H44.554z" fill="#231F20"/></g><g opacity="0.2"><path d="M8.887,38c-0.907,0-1.161-0.622-0.563-1.382l4.756-6.049c0.598-0.76,1.575-0.76,2.173,0l4.756,6.049    C20.607,37.378,20.354,38,19.446,38H8.887z" fill="#231F20"/></g><g><path d="M44.554,36c-0.907,0-1.161-0.622-0.563-1.382l4.756-6.049c0.598-0.76,1.575-0.76,2.173,0l4.756,6.049    C56.274,35.378,56.02,36,55.113,36H44.554z" fill="#E0E0D1"/></g><g><path d="M8.887,36c-0.907,0-1.161-0.622-0.563-1.382l4.756-6.049c0.598-0.76,1.575-0.76,2.173,0l4.756,6.049    C20.607,35.378,20.354,36,19.446,36H8.887z" fill="#E0E0D1"/></g><g opacity="0.2"><g><path d="M32,56c-11.028,0-20-8.972-20-20c0-1.104,0.896-2,2-2s2,0.896,2,2c0,8.822,7.178,16,16,16s16-7.178,16-16     c0-1.104,0.896-2,2-2s2,0.896,2,2C52,47.028,43.028,56,32,56z" fill="#231F20"/></g></g><g><path d="M32,54c-11.028,0-20-8.972-20-20c0-1.104,0.896-2,2-2s2,0.896,2,2c0,8.822,7.178,16,16,16s16-7.178,16-16    c0-1.104,0.896-2,2-2s2,0.896,2,2C52,45.028,43.028,54,32,54z" fill="#E0E0D1"/></g><g><rect fill="#E0E0D1" height="32" width="4" x="30" y="20"/></g><g opacity="0.2"><g><path d="M32,24c-3.309,0-6-2.691-6-6s2.691-6,6-6s6,2.691,6,6S35.309,24,32,24z M32,16c-1.103,0-2,0.897-2,2     s0.897,2,2,2s2-0.897,2-2S33.103,16,32,16z" fill="#231F20"/></g></g><g opacity="0.2"><g><path d="M40,31c0,1.105-0.895,2-2,2H26c-1.105,0-2-0.895-2-2l0,0c0-1.105,0.895-2,2-2h12     C39.105,29,40,29.895,40,31L40,31z" fill="#231F20"/></g></g><g><path d="M32,22c-3.309,0-6-2.691-6-6s2.691-6,6-6s6,2.691,6,6S35.309,22,32,22z M32,14c-1.103,0-2,0.897-2,2    s0.897,2,2,2s2-0.897,2-2S33.103,14,32,14z" fill="#E0E0D1"/></g><g><path d="M40,29c0,1.105-0.895,2-2,2H26c-1.105,0-2-0.895-2-2l0,0c0-1.105,0.895-2,2-2h12    C39.105,27,40,27.895,40,29L40,29z" fill="#E0E0D1"/></g></g><g id="Layer_2"/></svg>