<?xml version="1.0" ?><!DOCTYPE svg  PUBLIC '-//W3C//DTD SVG 1.1//EN'  'http://www.w3.org/Graphics/SVG/1.1/DTD/svg11.dtd'><svg height="16.37px" id="Capa_1" style="enable-background:new 0 0 31.559 16.37;" version="1.1" viewBox="0 0 31.559 16.37" width="31.559px" xml:space="preserve" xmlns="http://www.w3.org/2000/svg" xmlns:xlink="http://www.w3.org/1999/xlink"><g><path d="M20.584,12.574c0,1.032,2.441,3.796,5.471,3.796l0,0c3.03,0,5.504-2.764,5.504-3.796   c0-1.03-2.457-1.866-5.487-1.866l0,0C23.041,10.708,20.584,11.544,20.584,12.574z" style="fill:#231F20;"/><path d="M20.695,12.183c0.317-0.354,0.527-0.488,0.527-0.488l0,0l4.649-9.084l-0.203-0.01L20.695,12.183z" style="fill:#231F20;"/><path d="M30.729,11.576c0,0,0.229,0.081,0.567,0.416l-5.26-9.374l-0.19-0.008L30.729,11.576z" style="fill:#231F20;"/><polygon points="25.897,14.322 26.432,14.322 25.949,2.614 25.822,2.607  " style="fill:#231F20;"/><path d="M0,12.57v0.008c0.006,1.036,2.443,3.792,5.471,3.792l0,0c3.03,0,5.502-2.764,5.502-3.796l0,0   c0-1.03-2.456-1.866-5.486-1.866l0,0C2.459,10.708,0.006,11.542,0,12.57z" style="fill:#231F20;"/><path d="M0.11,12.183L0.11,12.183c0.317-0.354,0.527-0.488,0.527-0.488l0,0L5.287,2.61l-0.204-0.01   L0.11,12.183z" style="fill:#231F20;"/><path d="M5.261,2.61L5.261,2.61l4.883,8.966c0,0,0.229,0.081,0.568,0.416l0,0L5.451,2.618L5.261,2.61z" style="fill:#231F20;"/><polygon points="5.237,2.607 5.237,2.632 5.313,14.322 5.847,14.322 5.364,2.614  " style="fill:#231F20;"/><path d="M5.083,3.045v0.002c6.151-2.682,10.484-1.148,10.484-1.148l0,0l0.087-1.151   c-0.85-0.232-1.721-0.328-2.581-0.328l0,0C8.974,0.42,5.125,2.6,5.125,2.6l0,0L5.083,3.045z" style="fill:#231F20;"/><path d="M15.614,0.806l0.088,1.149c0,0,4.332-1.533,10.485,1.148l-0.044-0.446c0,0-3.848-2.181-7.947-2.181   l0,0C17.336,0.477,16.465,0.572,15.614,0.806z" style="fill:#231F20;"/><path d="M14.059,15.443v0.005c0.005,0.244,0.728,0.441,1.617,0.441l0,0c0.895,0,1.618-0.198,1.618-0.444   S16.57,15,15.676,15l0,0C14.786,15,14.063,15.198,14.059,15.443z" style="fill:#231F20;"/><path d="M14.899,15.296v0.003c0,0.154,0.346,0.279,0.772,0.279l0,0c0.425,0,0.771-0.125,0.771-0.279l0,0   c0-0.003-0.002-0.006-0.002-0.009l0,0h0.003l-0.44-14.18h-0.746L14.899,15.296z" style="fill:#231F20;"/><path d="M4.494,2.767v0.015c0.003,0.452,0.37,0.816,0.822,0.816l0,0c0.455,0,0.822-0.368,0.822-0.823l0,0   c0-0.455-0.367-0.823-0.822-0.823l0,0C4.864,1.951,4.497,2.316,4.494,2.767z" style="fill:#231F20;"/><path d="M25.185,2.774c0,0.455,0.369,0.823,0.823,0.823l0,0c0.455,0,0.822-0.368,0.822-0.823   s-0.367-0.823-0.822-0.823l0,0C25.554,1.951,25.185,2.319,25.185,2.774z" style="fill:#231F20;"/><path d="M14.227,1.311v0.022c0.006,0.724,0.595,1.311,1.32,1.311l0,0c0.731,0,1.322-0.593,1.322-1.321   C16.869,0.591,16.278,0,15.547,0l0,0C14.821,0,14.232,0.585,14.227,1.311z" style="fill:#231F20;"/><path d="M11.589,4.481c0.91,0.909,2.404,1.35,3.941,1.35l0,0c1.46,0,2.769-0.525,3.676-1.356l-1.75-1.932   c-0.588,0.204-1.249,0.37-1.926,0.37l0,0c-0.756,0-1.469-0.144-2.109-0.394l0,0L11.589,4.481z" style="fill:#231F20;"/><path d="M16.347,1.526c0-0.384-0.311-0.694-0.694-0.694c-0.385,0-0.695,0.311-0.695,0.694   c0,0.225,0.107,0.422,0.271,0.549l0.33,3.681l0.453-3.637C16.212,1.997,16.347,1.778,16.347,1.526z" style="fill:#FFFFFF;"/></g><g/><g/><g/><g/><g/><g/><g/><g/><g/><g/><g/><g/><g/><g/><g/></svg>